# Blender v2.92.0 OBJ File: ''
# www.blender.org
mtllib statek1.mtl
o Cube
v 0.464035 0.464035 -1.000000
v 0.464035 1.000000 -0.464035
v 1.000000 0.464035 -0.464035
v 0.464035 -1.000000 -0.464035
v 0.464035 -0.464035 -1.000000
v 1.000000 -0.464035 -0.464035
v 1.000000 0.464035 0.464035
v 0.464035 1.000000 0.464035
v 0.464035 0.464035 1.000000
v 1.000000 -0.464035 0.464035
v 0.464035 -0.464035 1.000000
v 0.464035 -1.000000 0.464035
v -0.464035 0.464035 -1.000000
v -1.000000 0.464035 -0.464035
v -0.464035 1.000000 -0.464035
v -1.000000 -0.464035 -0.464035
v -0.464035 -0.464035 -1.000000
v -0.464035 -1.000000 -0.464035
v -1.000000 0.464035 0.464035
v -0.464035 0.464035 1.000000
v -0.464035 1.000000 0.464035
v -0.464035 -1.000000 0.464035
v -0.464035 -0.464035 1.000000
v -1.000000 -0.464035 0.464035
v -0.464035 -0.464035 -1.000000
v 0.464035 -0.464035 -1.000000
v 0.464035 0.464035 -1.000000
v -0.464035 0.464035 -1.000000
vt 0.191996 0.566996
vt 0.308004 0.566996
vt 0.308004 0.683004
vt 0.191996 0.683004
vt 0.441996 0.066996
vt 0.558004 0.066996
vt 0.558004 0.183004
vt 0.441996 0.183004
vt 0.441996 0.816996
vt 0.558004 0.816996
vt 0.558004 0.933004
vt 0.441996 0.933004
vt 0.691996 0.566996
vt 0.808004 0.566996
vt 0.808004 0.683004
vt 0.691996 0.683004
vt 0.441996 0.566996
vt 0.558004 0.566996
vt 0.558004 0.683004
vt 0.441996 0.683004
vt 0.558004 0.433004
vt 0.625000 0.433004
vt 0.558004 0.500000
vt 0.308004 0.500000
vt 0.375000 0.566996
vt 0.625000 0.683004
vt 0.558004 0.750000
vt 0.441996 0.750000
vt 0.375000 0.816996
vt 0.375000 0.816996
vt 0.558004 0.250000
vt 0.558004 0.250000
vt 0.625000 0.183004
vt 0.441996 0.250000
vt 0.375000 0.183004
vt 0.558004 0.000000
vt 0.625000 0.066996
vt 0.191996 0.750000
vt 0.125000 0.683004
vt 0.125000 0.566996
vt 0.191996 0.500000
vt 0.441996 0.433004
vt 0.441996 0.000000
vt 0.558004 0.316996
vt 0.441996 0.316996
vt 0.625000 0.816996
vt 0.625000 0.933004
vt 0.308004 0.750000
vt 0.625000 0.316996
vt 0.441996 0.316996
vt 0.558004 0.316996
vt 0.558004 0.433004
vt 0.441996 0.433004
vn 0.0000 -1.0000 0.0000
vn -1.0000 0.0000 0.0000
vn 0.0000 0.0000 1.0000
vn 0.0000 1.0000 0.0000
vn 1.0000 0.0000 0.0000
vn 0.5774 0.5774 -0.5774
vn 0.5774 -0.5774 -0.5774
vn 0.5774 0.5774 0.5774
vn 0.5774 -0.5774 0.5774
vn -0.5774 0.5774 -0.5774
vn -0.5774 -0.5774 -0.5774
vn -0.5774 0.5774 0.5774
vn -0.5774 -0.5774 0.5774
vn -0.7071 -0.7071 0.0000
vn 0.0000 -0.7071 -0.7071
vn 0.7071 0.0000 -0.7071
vn -0.7071 0.0000 0.7071
vn 0.7071 0.0000 0.7071
vn -0.7071 0.0000 -0.7071
vn 0.0000 0.7071 0.7071
vn 0.7071 0.7071 0.0000
vn 0.0000 -0.7071 0.7071
vn -0.7071 0.7071 0.0000
vn 0.0000 0.7071 -0.7071
vn 0.7071 -0.7071 0.0000
vn 0.0000 0.0000 -1.0000
usemtl Material
s off
f 18/1/1 4/2/1 12/3/1 22/4/1
f 24/5/2 19/6/2 14/7/2 16/8/2
f 11/9/3 9/10/3 20/11/3 23/12/3
f 2/13/4 15/14/4 21/15/4 8/16/4
f 6/17/5 3/18/5 7/19/5 10/20/5
f 27/21/6 2/22/6 3/23/6
f 4/2/7 26/24/7 6/25/7
f 7/19/8 8/26/8 9/27/8
f 10/28/9 11/29/9 12/30/9
f 28/31/10 14/32/10 15/33/10
f 16/8/11 25/34/11 18/35/11
f 19/6/12 20/36/12 21/37/12
f 22/4/13 23/38/13 24/39/13
f 18/1/14 22/4/14 24/39/14 16/40/14
f 4/2/15 18/1/15 25/41/15 26/24/15
f 3/18/16 6/17/16 26/42/16 27/21/16
f 23/43/17 20/36/17 19/6/17 24/5/17
f 9/10/18 11/9/18 10/20/18 7/19/18
f 28/44/19 25/45/19 16/8/19 14/7/19
f 8/46/20 21/47/20 20/11/20 9/10/20
f 2/13/21 8/16/21 7/19/21 3/18/21
f 22/4/22 12/3/22 11/48/22 23/38/22
f 21/37/23 15/33/23 14/7/23 19/6/23
f 15/49/24 2/22/24 27/21/24 28/44/24
f 12/3/25 4/2/25 6/17/25 10/20/25
f 17/50/26 13/51/26 1/52/26 5/53/26
f 17/50/3 5/53/3 26/42/3 25/45/3
f 5/53/3 1/52/3 27/21/3 26/42/3
f 13/51/3 17/50/3 25/45/3 28/44/3
f 1/52/3 13/51/3 28/44/3 27/21/3
